<?xml version="1.0" standalone="no"?>
<svg xmlns:xlink="http://www.w3.org/1999/xlink" id="wave" style="transform:rotate(0deg); transition: 0.3s" viewBox="0 0 1440 310" version="1.1" xmlns="http://www.w3.org/2000/svg"><defs><linearGradient id="sw-gradient-0" x1="0" x2="0" y1="1" y2="0"><stop stop-color="rgba(21, 93, 252, 1)" offset="0%"/><stop stop-color="rgba(25, 60, 184, 1)" offset="100%"/></linearGradient></defs><path style="transform:translate(0, 0px); opacity:1" fill="url(#sw-gradient-0)" d="M0,124L30,149.8C60,176,120,227,180,222.2C240,217,300,155,360,108.5C420,62,480,31,540,51.7C600,72,660,145,720,149.8C780,155,840,93,900,87.8C960,83,1020,134,1080,175.7C1140,217,1200,248,1260,248C1320,248,1380,217,1440,170.5C1500,124,1560,62,1620,41.3C1680,21,1740,41,1800,56.8C1860,72,1920,83,1980,77.5C2040,72,2100,52,2160,82.7C2220,114,2280,196,2340,217C2400,238,2460,196,2520,191.2C2580,186,2640,217,2700,211.8C2760,207,2820,165,2880,144.7C2940,124,3000,124,3060,118.8C3120,114,3180,103,3240,113.7C3300,124,3360,155,3420,180.8C3480,207,3540,227,3600,237.7C3660,248,3720,248,3780,222.2C3840,196,3900,145,3960,139.5C4020,134,4080,176,4140,170.5C4200,165,4260,114,4290,87.8L4320,62L4320,310L4290,310C4260,310,4200,310,4140,310C4080,310,4020,310,3960,310C3900,310,3840,310,3780,310C3720,310,3660,310,3600,310C3540,310,3480,310,3420,310C3360,310,3300,310,3240,310C3180,310,3120,310,3060,310C3000,310,2940,310,2880,310C2820,310,2760,310,2700,310C2640,310,2580,310,2520,310C2460,310,2400,310,2340,310C2280,310,2220,310,2160,310C2100,310,2040,310,1980,310C1920,310,1860,310,1800,310C1740,310,1680,310,1620,310C1560,310,1500,310,1440,310C1380,310,1320,310,1260,310C1200,310,1140,310,1080,310C1020,310,960,310,900,310C840,310,780,310,720,310C660,310,600,310,540,310C480,310,420,310,360,310C300,310,240,310,180,310C120,310,60,310,30,310L0,310Z"/><defs><linearGradient id="sw-gradient-1" x1="0" x2="0" y1="1" y2="0"><stop stop-color="rgba(21, 93, 252, 1)" offset="0%"/><stop stop-color="rgba(25, 60, 184, 1)" offset="100%"/></linearGradient></defs><path style="transform:translate(0, 50px); opacity:0.9" fill="url(#sw-gradient-1)" d="M0,62L30,87.8C60,114,120,165,180,160.2C240,155,300,93,360,56.8C420,21,480,10,540,36.2C600,62,660,124,720,144.7C780,165,840,145,900,160.2C960,176,1020,227,1080,211.8C1140,196,1200,114,1260,82.7C1320,52,1380,72,1440,98.2C1500,124,1560,155,1620,139.5C1680,124,1740,62,1800,67.2C1860,72,1920,145,1980,170.5C2040,196,2100,176,2160,170.5C2220,165,2280,176,2340,180.8C2400,186,2460,186,2520,160.2C2580,134,2640,83,2700,56.8C2760,31,2820,31,2880,41.3C2940,52,3000,72,3060,72.3C3120,72,3180,52,3240,36.2C3300,21,3360,10,3420,20.7C3480,31,3540,62,3600,72.3C3660,83,3720,72,3780,82.7C3840,93,3900,124,3960,118.8C4020,114,4080,72,4140,46.5C4200,21,4260,10,4290,5.2L4320,0L4320,310L4290,310C4260,310,4200,310,4140,310C4080,310,4020,310,3960,310C3900,310,3840,310,3780,310C3720,310,3660,310,3600,310C3540,310,3480,310,3420,310C3360,310,3300,310,3240,310C3180,310,3120,310,3060,310C3000,310,2940,310,2880,310C2820,310,2760,310,2700,310C2640,310,2580,310,2520,310C2460,310,2400,310,2340,310C2280,310,2220,310,2160,310C2100,310,2040,310,1980,310C1920,310,1860,310,1800,310C1740,310,1680,310,1620,310C1560,310,1500,310,1440,310C1380,310,1320,310,1260,310C1200,310,1140,310,1080,310C1020,310,960,310,900,310C840,310,780,310,720,310C660,310,600,310,540,310C480,310,420,310,360,310C300,310,240,310,180,310C120,310,60,310,30,310L0,310Z"/><defs><linearGradient id="sw-gradient-2" x1="0" x2="0" y1="1" y2="0"><stop stop-color="rgba(21, 93, 252, 1)" offset="0%"/><stop stop-color="rgba(25, 60, 184, 1)" offset="100%"/></linearGradient></defs><path style="transform:translate(0, 100px); opacity:0.8" fill="url(#sw-gradient-2)" d="M0,0L30,25.8C60,52,120,103,180,103.3C240,103,300,52,360,31C420,10,480,21,540,62C600,103,660,176,720,201.5C780,227,840,207,900,175.7C960,145,1020,103,1080,103.3C1140,103,1200,145,1260,134.3C1320,124,1380,62,1440,67.2C1500,72,1560,145,1620,144.7C1680,145,1740,72,1800,67.2C1860,62,1920,124,1980,139.5C2040,155,2100,124,2160,93C2220,62,2280,31,2340,20.7C2400,10,2460,21,2520,20.7C2580,21,2640,10,2700,31C2760,52,2820,103,2880,149.8C2940,196,3000,238,3060,227.3C3120,217,3180,155,3240,144.7C3300,134,3360,176,3420,180.8C3480,186,3540,155,3600,139.5C3660,124,3720,124,3780,118.8C3840,114,3900,103,3960,98.2C4020,93,4080,93,4140,82.7C4200,72,4260,52,4290,41.3L4320,31L4320,310L4290,310C4260,310,4200,310,4140,310C4080,310,4020,310,3960,310C3900,310,3840,310,3780,310C3720,310,3660,310,3600,310C3540,310,3480,310,3420,310C3360,310,3300,310,3240,310C3180,310,3120,310,3060,310C3000,310,2940,310,2880,310C2820,310,2760,310,2700,310C2640,310,2580,310,2520,310C2460,310,2400,310,2340,310C2280,310,2220,310,2160,310C2100,310,2040,310,1980,310C1920,310,1860,310,1800,310C1740,310,1680,310,1620,310C1560,310,1500,310,1440,310C1380,310,1320,310,1260,310C1200,310,1140,310,1080,310C1020,310,960,310,900,310C840,310,780,310,720,310C660,310,600,310,540,310C480,310,420,310,360,310C300,310,240,310,180,310C120,310,60,310,30,310L0,310Z"/></svg>